---
title: 马兆骏.1997-滾石24K24Bit珍藏版金碟系列【滚石】【WAV+CUE】
date: 2023-07-27 10:02:36
categories: WAV车载音乐、镜像
tags: 华语中文
---
# 马兆骏.1997-滾石24K24Bit珍藏版金碟系列【滚石】【WAV+CUE】

REM DATE 1998
REM DISCID C610510F
REM COMMENT "ExactAudioCopy v1.6"
PERFORMER "马兆骏"
TITLE "滚石24K24Bit珍藏版金碟系列"
REM COMPOSER ""
FILE "马兆骏 - 滚石24K24Bit珍藏版金碟系列.wav" WAVE
TRACK 01 AUDIO
TITLE "我要的不多"
PERFORMER "马兆骏"
REM COMPOSER ""
INDEX 01 00:00:00
TRACK 02 AUDIO
TITLE "心存感激"
PERFORMER "马兆骏"
REM COMPOSER ""
INDEX 00 05:11:62
INDEX 01 05:14:10
TRACK 03 AUDIO
TITLE "就要回家"
PERFORMER "马兆骏"
REM COMPOSER ""
INDEX 00 09:13:17
INDEX 01 09:15:40
TRACK 04 AUDIO
TITLE "上海公园"
PERFORMER "马兆骏"
REM COMPOSER ""
INDEX 00 14:32:70
INDEX 01 14:35:17
TRACK 05 AUDIO
TITLE "我最爱的你"
PERFORMER "马兆骏"
REM COMPOSER ""
INDEX 00 19:18:65
INDEX 01 19:21:12
TRACK 06 AUDIO
TITLE "二手爱情"
PERFORMER "马兆骏"
REM COMPOSER ""
INDEX 00 23:58:07
INDEX 01 24:00:30
TRACK 07 AUDIO
TITLE "汶莱机场"
PERFORMER "马兆骏"
REM COMPOSER ""
INDEX 00 28:15:70
INDEX 01 28:18:17
TRACK 08 AUDIO
TITLE "会有那么一天"
PERFORMER "马兆骏"
REM COMPOSER ""
INDEX 00 32:21:50
INDEX 01 32:23:72
TRACK 09 AUDIO
TITLE "顽皮的游戏"
PERFORMER "马兆骏"
REM COMPOSER ""
INDEX 00 37:10:55
INDEX 01 37:13:02
TRACK 10 AUDIO
TITLE "南方的海市蜃楼"
PERFORMER "马兆骏"
REM COMPOSER ""
INDEX 00 41:32:65
INDEX 01 41:35:15
TRACK 11 AUDIO
TITLE "微风早晨"
PERFORMER "马兆骏"
REM COMPOSER ""
INDEX 00 45:49:02
INDEX 01 45:51:25
TRACK 12 AUDIO
TITLE "放逐歌手"
PERFORMER "马兆骏"
REM COMPOSER ""
INDEX 00 49:58:70
INDEX 01 50:01:17
TRACK 13 AUDIO
TITLE "人人为己"
PERFORMER "马兆骏"
REM COMPOSER ""
INDEX 00 55:05:55
INDEX 01 55:08:05
TRACK 14 AUDIO
TITLE "今夜不打卡"
PERFORMER "马兆骏"
REM COMPOSER ""
INDEX 00 59:13:20
INDEX 01 59:15:42
TRACK 15 AUDIO
TITLE "那年我们十九岁"
PERFORMER "马兆骏"
REM COMPOSER ""
INDEX 00 63:46:50
INDEX 01 63:48:72
马兆骏.1997 - 滾石24K24Bit珍藏版金碟系列【滚石】【WAV+CUE】.rar: https://url27.ctfile.com/f/9388027-898363458-1fb8d2?p=559675
(访问密码: 559675)
马兆骏: https://url27.ctfile.com/d/9388027-57169650-40417b?p=559675
(访问密码: 559675)
原文：[链接](https://blog.sina.com.cn/s/blog_1647c7e76010312vc.html)